# xmcd CD database file
#
# Track frame offsets:
#	150
#	34312
#	69395
#	91172
#	118660
#	138115
#	165185
#	190855
#	226057
#	252435
#	279420
#
# Disc length: 3864 seconds
#
# Revision: 0
# Processed by: cddbd v1.5.2PL0 Copyright (c) Steve Scherf et al.
# Submitted via: CDex 1.77
#
DISCID=880f160b
DTITLE=Lesa Terry - A city called Heaven
DYEAR=2001
DGENRE=Jazz
TTITLE0=Motherless Child
TTITLE1=A City Called Heaven
TTITLE2=Swinfg Low, Sweet Chariot
TTITLE3=Deep River
TTITLE4=Keep It On A Movin
TTITLE5=Soon I Will Be done
TTITLE6=Struttin by the Riverside
TTITLE7=Cavalry
TTITLE8=Abundantly
TTITLE9=Every Time I Feel The Spirit
TTITLE10=It Is Well with Thee
EXTD=YEAR: 2001
EXTT0=
EXTT1=
EXTT2=
EXTT3=
EXTT4=
EXTT5=
EXTT6=
EXTT7=
EXTT8=
EXTT9=
EXTT10=
PLAYORDER=
